<?xml version="1.0" encoding="UTF-8" standalone="no"?><!DOCTYPE svg PUBLIC "-//W3C//DTD SVG 1.1//EN" "http://www.w3.org/Graphics/SVG/1.1/DTD/svg11.dtd"><svg width="100%" height="100%" viewBox="0 0 401 391" version="1.1" xmlns="http://www.w3.org/2000/svg" xmlns:xlink="http://www.w3.org/1999/xlink" xml:space="preserve" xmlns:serif="http://www.serif.com/" style="fill-rule:evenodd;clip-rule:evenodd;stroke-linejoin:round;stroke-miterlimit:2;"><g id="Thick-Outline" serif:id="Thick Outline"></g><g id="Thick-Outline-Grey" serif:id="Thick Outline Grey"></g><g id="Outline"></g><g id="Short-Arrow-Outline" serif:id="Short Arrow Outline"></g><g id="Short-Arrow-Outline1" serif:id="Short Arrow Outline"><path d="M170.611,229.211c27.415,-17.919 50.956,-33.525 70.623,-46.817c19.667,-13.293 35.112,-23.758 46.336,-31.395c11.224,-7.638 21.107,-14.1 29.65,-19.388c8.542,-5.287 14.005,-7.931 16.389,-7.931c4.569,-0.147 8.939,3.341 13.111,10.465c4.172,7.123 6.258,12.815 6.258,17.074c0,2.791 -6.307,9.364 -18.922,19.718c-12.615,10.355 -22.051,18.617 -28.309,24.786c-6.257,6.169 -9.386,12.631 -9.386,19.387c0,3.966 1.788,7.161 5.363,9.584c3.576,2.424 7.847,3.635 12.814,3.635c5.761,0 12.664,-2.203 20.71,-6.609c8.045,-4.406 20.71,-12.264 37.993,-23.574l0,15.643c-17.283,12.043 -32.977,22.435 -47.082,31.174c-14.104,8.739 -26.371,15.275 -36.801,19.608c-10.429,4.333 -19.121,6.499 -26.074,6.499c-6.158,0 -11.323,-1.725 -15.495,-5.177c-4.172,-3.452 -6.257,-7.748 -6.257,-12.888c0,-4.994 1.191,-10.061 3.575,-15.202c2.384,-5.141 6.059,-11.236 11.026,-18.286c4.966,-7.05 11.522,-15.532 19.667,-25.447c8.145,-9.914 15.594,-18.983 22.349,-27.208c-20.263,12.19 -38.242,23.94 -53.936,35.25c-15.693,11.309 -28.507,21.187 -38.44,29.632c-9.932,8.446 -17.779,15.092 -23.54,19.939c-11.125,9.106 -21.455,13.659 -30.991,13.659c-10.33,0 -15.495,-5.434 -15.495,-16.303c0,-4.406 3.874,-12.301 11.621,-23.684c7.748,-11.383 18.773,-25.887 33.077,-43.512c1.192,-1.175 1.788,-3.011 1.788,-5.508c0,-2.937 -1.987,-4.406 -5.96,-4.406c-4.371,0 -10.678,3.047 -18.922,9.143c-8.244,6.095 -24.187,18.837 -47.827,38.224c-6.555,5.435 -13.955,12.522 -22.2,21.261c-8.244,8.739 -14.154,14.577 -17.73,17.515c-3.576,2.937 -7.151,4.406 -10.727,4.406c-7.152,0 -13.807,-4.7 -19.965,-14.1c-6.159,-9.4 -9.238,-20.342 -9.238,-32.827c0,-9.106 2.037,-16.964 6.109,-23.574c4.072,-6.609 10.38,-14.834 18.922,-24.675c13.31,-14.247 24.186,-24.418 32.629,-30.513c8.443,-6.096 17.333,-9.144 26.67,-9.144c5.761,0 10.628,0.845 14.601,2.534c3.973,1.689 5.96,4.002 5.96,6.94c0,3.084 -3.626,8.152 -10.876,15.202c-7.251,7.05 -16.439,14.32 -27.564,21.811c-5.96,4.259 -11.621,9.51 -16.985,15.752c-5.364,6.243 -8.046,10.759 -8.046,13.55c0,3.965 2.086,5.948 6.258,5.948c3.377,0 11.919,-5.14 25.627,-15.422c13.707,-10.281 28.755,-21.48 45.144,-33.598c16.389,-12.117 31.587,-22.178 45.592,-30.183c14.005,-8.005 25.875,-12.007 35.609,-12.007c5.96,0 10.877,1.652 14.75,4.957c3.874,3.305 5.811,7.381 5.811,12.228c0,3.231 -2.98,9.069 -8.939,17.515c-5.96,8.445 -14.651,18.873 -26.074,31.284c-11.423,12.411 -26.173,27.429 -44.251,45.055Z" style="fill:#eee;fill-rule:nonzero;"/></g></svg>