<?xml version="1.0" encoding="UTF-8" standalone="no"?><!DOCTYPE svg PUBLIC "-//W3C//DTD SVG 1.1//EN" "http://www.w3.org/Graphics/SVG/1.1/DTD/svg11.dtd"><svg width="100%" height="100%" viewBox="0 0 401 391" version="1.1" xmlns="http://www.w3.org/2000/svg" xmlns:xlink="http://www.w3.org/1999/xlink" xml:space="preserve" xmlns:serif="http://www.serif.com/" style="fill-rule:evenodd;clip-rule:evenodd;stroke-linejoin:round;stroke-miterlimit:2;"><g id="Thick-Outline" serif:id="Thick Outline"></g><g id="Thick-Outline-Grey" serif:id="Thick Outline Grey"></g><g id="Outline"></g><g id="Short-Arrow-Outline" serif:id="Short Arrow Outline"></g><g id="Short-Arrow-Outline1" serif:id="Short Arrow Outline"><path d="M200.337,4.53c-104.914,0 -190.09,85.177 -190.09,190.091c0,104.914 85.176,190.091 190.09,190.091c104.914,0 190.091,-85.177 190.091,-190.091c0,-104.914 -85.177,-190.091 -190.091,-190.091Zm0,24.816c91.218,0 165.276,74.057 165.276,165.275c0,91.218 -74.058,165.276 -165.276,165.276c-91.218,0 -165.275,-74.058 -165.275,-165.276c0,-91.218 74.057,-165.275 165.275,-165.275Z" style="fill:#eee;"/><path d="M173.459,224.766c23.892,-15.617 44.408,-29.217 61.547,-40.801c17.14,-11.584 30.6,-20.704 40.382,-27.36c9.782,-6.656 18.395,-12.288 25.839,-16.896c7.445,-4.609 12.206,-6.913 14.283,-6.913c3.982,-0.128 7.791,2.912 11.427,9.121c3.636,6.208 5.453,11.168 5.453,14.88c0,2.432 -5.496,8.16 -16.49,17.184c-10.994,9.024 -19.217,16.224 -24.671,21.6c-5.453,5.376 -8.18,11.008 -8.18,16.896c0,3.456 1.558,6.241 4.674,8.353c3.117,2.112 6.839,3.168 11.167,3.168c5.021,0 11.037,-1.92 18.049,-5.76c7.011,-3.841 18.048,-10.689 33.11,-20.545l0,13.632c-15.062,10.497 -28.739,19.553 -41.031,27.169c-12.292,7.616 -22.983,13.312 -32.072,17.088c-9.089,3.776 -16.663,5.664 -22.723,5.664c-5.367,0 -9.868,-1.504 -13.504,-4.512c-3.635,-3.008 -5.453,-6.752 -5.453,-11.232c0,-4.352 1.039,-8.768 3.116,-13.248c2.078,-4.48 5.281,-9.792 9.609,-15.937c4.328,-6.144 10.041,-13.536 17.139,-22.176c7.099,-8.64 13.591,-16.544 19.477,-23.712c-17.659,10.624 -33.327,20.864 -47.004,30.72c-13.677,9.856 -24.844,18.465 -33.5,25.825c-8.656,7.36 -15.495,13.152 -20.516,17.376c-9.695,7.936 -18.697,11.904 -27.008,11.904c-9.002,0 -13.503,-4.736 -13.503,-14.208c0,-3.84 3.376,-10.72 10.128,-20.64c6.751,-9.921 16.36,-22.561 28.825,-37.921c1.039,-1.024 1.558,-2.624 1.558,-4.8c0,-2.56 -1.731,-3.84 -5.193,-3.84c-3.809,0 -9.306,2.656 -16.491,7.968c-7.185,5.312 -21.078,16.416 -41.68,33.312c-5.713,4.737 -12.162,10.913 -19.347,18.529c-7.185,7.616 -12.336,12.704 -15.452,15.264c-3.116,2.56 -6.232,3.84 -9.349,3.84c-6.232,0 -12.032,-4.096 -17.399,-12.288c-5.367,-8.192 -8.05,-17.728 -8.05,-28.609c0,-7.936 1.774,-14.784 5.323,-20.544c3.549,-5.76 9.046,-12.928 16.491,-21.504c11.599,-12.416 21.078,-21.28 28.436,-26.592c7.358,-5.312 15.105,-7.969 23.242,-7.969c5.021,0 9.262,0.736 12.725,2.209c3.463,1.472 5.194,3.488 5.194,6.048c0,2.688 -3.16,7.104 -9.479,13.248c-6.319,6.144 -14.326,12.48 -24.021,19.008c-5.194,3.712 -10.128,8.288 -14.803,13.728c-4.674,5.44 -7.011,9.376 -7.011,11.808c0,3.456 1.817,5.184 5.453,5.184c2.943,0 10.388,-4.48 22.334,-13.44c11.945,-8.96 25.06,-18.72 39.343,-29.28c14.283,-10.56 27.527,-19.328 39.732,-26.304c12.206,-6.977 22.55,-10.465 31.034,-10.465c5.193,0 9.478,1.44 12.854,4.32c3.376,2.88 5.064,6.433 5.064,10.657c0,2.816 -2.597,7.904 -7.79,15.264c-5.194,7.36 -12.769,16.448 -22.723,27.264c-9.955,10.816 -22.81,23.904 -38.565,39.265Z" style="fill:#eee;fill-rule:nonzero;"/></g></svg>