<?xml version="1.0" encoding="UTF-8" standalone="no"?><!DOCTYPE svg PUBLIC "-//W3C//DTD SVG 1.1//EN" "http://www.w3.org/Graphics/SVG/1.1/DTD/svg11.dtd"><svg width="100%" height="100%" viewBox="0 0 48 48" version="1.1" xmlns="http://www.w3.org/2000/svg" xmlns:xlink="http://www.w3.org/1999/xlink" xml:space="preserve" xmlns:serif="http://www.serif.com/" style="fill-rule:evenodd;clip-rule:evenodd;stroke-linejoin:round;stroke-miterlimit:2;"><path d="M17.727,26.091l-12.545,0c-2.311,0 -4.182,1.873 -4.182,4.182l0,12.545c0,2.311 1.873,4.182 4.182,4.182l12.545,0c2.311,0 4.182,-1.873 4.182,-4.182l0,-12.545c0,-2.309 -1.873,-4.182 -4.182,-4.182Zm0,-25.091l-12.545,0c-2.309,0 -4.182,1.873 -4.182,4.182l0,12.545c0,2.311 1.873,4.182 4.182,4.182l12.545,0c2.311,0 4.182,-1.873 4.182,-4.182l0,-12.545c0,-2.309 -1.873,-4.182 -4.182,-4.182Zm25.091,25.091l-12.545,0c-2.311,0 -4.182,1.873 -4.182,4.182l0,12.545c0,2.311 1.873,4.182 4.182,4.182l12.545,0c2.311,0 4.182,-1.873 4.182,-4.182l0,-12.545c0,-2.309 -1.873,-4.182 -4.182,-4.182Zm0,-25.091l-12.545,0c-2.311,0 -4.182,1.873 -4.182,4.182l0,12.545c0,2.311 1.873,4.182 4.182,4.182l12.545,0c2.311,0 4.182,-1.873 4.182,-4.182l0,-12.545c0,-2.309 -1.873,-4.182 -4.182,-4.182Z" style="fill:#38c6ed;fill-rule:nonzero;"/></svg>