<?xml version="1.0" encoding="UTF-8" standalone="no"?><!DOCTYPE svg PUBLIC "-//W3C//DTD SVG 1.1//EN" "http://www.w3.org/Graphics/SVG/1.1/DTD/svg11.dtd"><svg width="100%" height="100%" viewBox="0 0 36 36" version="1.1" xmlns="http://www.w3.org/2000/svg" xmlns:xlink="http://www.w3.org/1999/xlink" xml:space="preserve" xmlns:serif="http://www.serif.com/" style="fill-rule:evenodd;clip-rule:evenodd;stroke-linejoin:round;stroke-miterlimit:2;"><path d="M35.096,30.386l-8.563,-8.562c1.292,-2.119 2.035,-4.611 2.035,-7.274c0,-7.742 -6.709,-14.449 -14.452,-14.449c-7.742,-0.002 -14.016,6.274 -14.016,14.016c0,7.741 6.709,14.45 14.449,14.45c2.577,0 4.985,-0.7 7.058,-1.913l8.608,8.613c0.843,0.84 2.209,0.84 3.05,0l2.137,-2.137c0.84,-0.84 0.535,-1.903 -0.306,-2.744Zm-30.682,-16.269c0,-5.36 4.344,-9.704 9.702,-9.704c5.361,0 10.138,4.774 10.138,10.137c0,5.359 -4.346,9.705 -9.705,9.705c-5.361,-0.002 -10.135,-4.779 -10.135,-10.138Z" style="fill:#eee;fill-rule:nonzero;"/></svg>