<?xml version="1.0" encoding="UTF-8" standalone="no"?><!DOCTYPE svg PUBLIC "-//W3C//DTD SVG 1.1//EN" "http://www.w3.org/Graphics/SVG/1.1/DTD/svg11.dtd"><svg width="100%" height="100%" viewBox="0 0 60 59" version="1.1" xmlns="http://www.w3.org/2000/svg" xmlns:xlink="http://www.w3.org/1999/xlink" xml:space="preserve" xmlns:serif="http://www.serif.com/" style="fill-rule:evenodd;clip-rule:evenodd;stroke-linejoin:round;stroke-miterlimit:2;"><g><path d="M29.912,17.209c-11.275,0 -20.163,11.059 -20.537,11.531c-0.356,0.447 -0.356,1.077 0,1.526c0.374,0.47 9.262,11.529 20.537,11.529c11.277,0 20.165,-11.059 20.539,-11.529c0.356,-0.447 0.356,-1.079 0,-1.526c-0.374,-0.472 -9.262,-11.531 -20.539,-11.531Zm0,22.127c-8.463,0 -15.78,-7.403 -17.955,-9.834c2.17,-2.434 9.475,-9.834 17.955,-9.834c8.465,0 15.781,7.402 17.957,9.834c-2.171,2.436 -9.475,9.834 -17.957,9.834Z" style="fill:#38c6ed;fill-rule:nonzero;"/><circle cx="29.912" cy="29.502" r="7.376" style="fill:#38c6ed;"/></g><path d="M30.015,1.997c-15.179,0 -27.503,12.324 -27.503,27.503c0,15.179 12.324,27.503 27.503,27.503c15.179,0 27.503,-12.324 27.503,-27.503c0,-15.179 -12.324,-27.503 -27.503,-27.503Zm0,3.59c13.198,0 23.913,10.715 23.913,23.913c0,13.198 -10.715,23.913 -23.913,23.913c-13.198,0 -23.913,-10.715 -23.913,-23.913c0,-13.198 10.715,-23.913 23.913,-23.913Z" style="fill:#38c6ed;"/></svg>