<?xml version="1.0" encoding="UTF-8" standalone="no"?><!DOCTYPE svg PUBLIC "-//W3C//DTD SVG 1.1//EN" "http://www.w3.org/Graphics/SVG/1.1/DTD/svg11.dtd"><svg width="100%" height="100%" viewBox="0 0 94 57" version="1.1" xmlns="http://www.w3.org/2000/svg" xmlns:xlink="http://www.w3.org/1999/xlink" xml:space="preserve" xmlns:serif="http://www.serif.com/" style="fill-rule:evenodd;clip-rule:evenodd;stroke-linejoin:round;stroke-miterlimit:2;"><g><path d="M93.398,27.864c-0.029,-0.12 -0.012,-0.248 -0.059,-0.365c-0.017,-0.049 -0.061,-0.074 -0.078,-0.12c-0.029,-0.068 -0.023,-0.145 -0.061,-0.211c-8.436,-15.828 -26.801,-27.168 -46.175,-27.168c-19.376,0 -37.738,11.323 -46.18,27.148c-0.038,0.066 -0.032,0.143 -0.061,0.211c-0.02,0.046 -0.061,0.071 -0.079,0.12c-0.046,0.117 -0.029,0.245 -0.058,0.365c-0.052,0.214 -0.102,0.419 -0.102,0.639c0,0.219 0.053,0.422 0.102,0.638c0.029,0.12 0.012,0.248 0.058,0.365c0.018,0.049 0.062,0.074 0.079,0.12c0.029,0.068 0.023,0.145 0.061,0.211c8.439,15.828 26.804,27.168 46.18,27.168c19.374,0 37.739,-11.323 46.175,-27.148c0.041,-0.066 0.035,-0.143 0.061,-0.211c0.017,-0.046 0.061,-0.071 0.078,-0.12c0.047,-0.117 0.03,-0.245 0.059,-0.365c0.049,-0.217 0.101,-0.422 0.101,-0.639c0,-0.216 -0.052,-0.424 -0.101,-0.638Zm-46.376,23.415c-16.334,0 -32.324,-9.098 -40.292,-22.796c8.011,-13.716 23.979,-22.783 40.292,-22.783c16.329,0 32.322,9.102 40.29,22.797c-8.011,13.718 -23.976,22.782 -40.29,22.782Z" style="fill:#eee;fill-rule:nonzero;"/><path d="M47.022,17.094c-0.005,0 -0.011,0.003 -0.017,0.003c-6.414,0.011 -11.613,5.107 -11.613,11.394c0,0.787 0.652,1.426 1.455,1.426c0.8,0 1.451,-0.639 1.451,-1.426c0,-4.71 3.913,-8.546 8.724,-8.546l0,-0.002c0.8,0 1.449,-0.639 1.449,-1.423c0,-0.79 -0.646,-1.426 -1.449,-1.426Z" style="fill:#eee;fill-rule:nonzero;"/><path d="M46.956,8.543c-11.25,0 -20.363,8.936 -20.363,19.959c0,11.024 9.116,19.96 20.363,19.96c11.243,0 20.363,-8.939 20.363,-19.96c0,-11.026 -9.12,-19.959 -20.363,-19.959Zm0,37.068c-9.626,0 -17.454,-7.673 -17.454,-17.109c0,-9.435 7.828,-17.108 17.454,-17.108c9.625,0 17.454,7.673 17.454,17.108c0,9.436 -7.829,17.109 -17.454,17.109Z" style="fill:#eee;fill-rule:nonzero;"/></g></svg>